<?xml version="1.0" encoding="UTF-8" standalone="no"?>
<!-- Created with Inkscape (http://www.inkscape.org/) -->

<svg
   width="1024"
   height="1024"
   viewBox="0 0 270.93333 270.93334"
   version="1.1"
   id="svg5"
   inkscape:version="1.1.1 (3bf5ae0d25, 2021-09-20)"
   sodipodi:docname="icon_web.svg"
   xmlns:inkscape="http://www.inkscape.org/namespaces/inkscape"
   xmlns:sodipodi="http://sodipodi.sourceforge.net/DTD/sodipodi-0.dtd"
   xmlns="http://www.w3.org/2000/svg"
   xmlns:svg="http://www.w3.org/2000/svg">
  <sodipodi:namedview
     id="namedview7"
     pagecolor="#505050"
     bordercolor="#eeeeee"
     borderopacity="1"
     inkscape:pageshadow="0"
     inkscape:pageopacity="0"
     inkscape:pagecheckerboard="0"
     inkscape:document-units="mm"
     showgrid="false"
     units="px"
     width="1024px"
     inkscape:zoom="0.25585961"
     inkscape:cx="193.46547"
     inkscape:cy="427.96907"
     inkscape:window-width="1920"
     inkscape:window-height="1080"
     inkscape:window-x="0"
     inkscape:window-y="0"
     inkscape:window-maximized="1"
     inkscape:current-layer="layer1" />
  <defs
     id="defs2" />
  <g
     inkscape:label="Layer 1"
     inkscape:groupmode="layer"
     id="layer1">
    <rect
       style="fill:#333333;stroke:none;stroke-width:0.727725"
       id="rect846"
       width="270.93332"
       height="270.93332"
       x="-1.4210855e-14"
       y="0"
       ry="135.46666" />
    <g
       id="g3157"
       style="stroke-width:2;stroke-miterlimit:4;stroke-dasharray:none">
      <rect
         style="fill:none;stroke:#ffffff;stroke-width:2;stroke-miterlimit:4;stroke-dasharray:none;stroke-opacity:1"
         id="rect1101"
         width="177.83278"
         height="178.05672"
         x="-230.39374"
         y="-42.969856"
         ry="38.520756" />
      <rect
         style="fill:none;stroke:#ffffff;stroke-width:2;stroke-miterlimit:4;stroke-dasharray:none;stroke-opacity:1"
         id="rect1351"
         width="153.5164"
         height="154.86983"
         x="-218.3699"
         y="-30.989798"
         ry="0" />
      <path
         style="fill:none;stroke:#ffffff;stroke-width:2;stroke-linecap:butt;stroke-linejoin:miter;stroke-miterlimit:4;stroke-dasharray:none;stroke-opacity:1"
         d="M -218.3699,-30.989796 -64.853499,123.88003 V -30.989796 L -218.3699,123.88003 Z"
         id="path1386" />
      <path
         style="fill:none;stroke:#ffffff;stroke-width:2;stroke-linecap:butt;stroke-linejoin:miter;stroke-miterlimit:4;stroke-dasharray:none;stroke-opacity:1"
         d="M -230.68996,13.224291 H -51.43973"
         id="path1684" />
      <path
         style="fill:none;stroke:#ffffff;stroke-width:2;stroke-linecap:butt;stroke-linejoin:miter;stroke-miterlimit:4;stroke-dasharray:none;stroke-opacity:1"
         d="M -230.68996,46.032627 H -51.43973"
         id="path1838" />
      <path
         style="fill:none;stroke:#ffffff;stroke-width:2;stroke-linecap:butt;stroke-linejoin:miter;stroke-miterlimit:4;stroke-dasharray:none;stroke-opacity:1"
         d="M -230.68996,78.840963 H -51.43973"
         id="path1920" />
      <path
         style="fill:none;stroke:#ffffff;stroke-width:2;stroke-linecap:butt;stroke-linejoin:miter;stroke-miterlimit:4;stroke-dasharray:none;stroke-opacity:1"
         d="M -173.87319,135.65774 V -43.592493"
         id="path1922" />
      <path
         style="fill:none;stroke:#ffffff;stroke-width:2;stroke-linecap:butt;stroke-linejoin:miter;stroke-miterlimit:4;stroke-dasharray:none;stroke-opacity:1"
         d="M -141.06485,135.65774 V -43.592493"
         id="path1924" />
      <path
         style="fill:none;stroke:#ffffff;stroke-width:2;stroke-linecap:butt;stroke-linejoin:miter;stroke-miterlimit:4;stroke-dasharray:none;stroke-opacity:1"
         d="M -108.25651,135.65774 V -43.592493"
         id="path1926" />
      <circle
         style="fill:none;stroke:#ffffff;stroke-width:2;stroke-miterlimit:4;stroke-dasharray:none;stroke-opacity:1"
         id="path1958"
         cx="-140.88263"
         cy="46.365383"
         r="32.63361" />
      <circle
         style="fill:none;stroke:#ffffff;stroke-width:2;stroke-miterlimit:4;stroke-dasharray:none;stroke-opacity:1"
         id="circle2040"
         cx="-140.88263"
         cy="46.365383"
         r="46.817307" />
      <circle
         style="fill:none;stroke:#ffffff;stroke-width:2;stroke-miterlimit:4;stroke-dasharray:none;stroke-opacity:1"
         id="circle2042"
         cx="-140.88263"
         cy="46.365383"
         r="76.507011" />
      <rect
         style="fill:#88bae4;fill-opacity:0.377034;stroke:#7e7cd0;stroke-width:2;stroke-miterlimit:4;stroke-dasharray:none;stroke-opacity:1"
         id="rect2066"
         width="23.215921"
         height="224.82648"
         x="-100.55646"
         y="-22.679661"
         transform="rotate(25.642869)"
         ry="11.607961" />
    </g>
    <g
       id="g3185"
       style="opacity:0.210661;stroke-width:2;stroke-miterlimit:4;stroke-dasharray:none"
       transform="matrix(1.5194249,0,0,1.5194249,651.54545,66.883012)">
      <rect
         style="fill:none;stroke:#ffffff;stroke-width:2;stroke-miterlimit:4;stroke-dasharray:none;stroke-opacity:1"
         id="rect3159"
         width="177.83278"
         height="178.05672"
         x="-230.39374"
         y="-42.969856"
         ry="38.520756" />
      <rect
         style="fill:none;stroke:#ffffff;stroke-width:2;stroke-miterlimit:4;stroke-dasharray:none;stroke-opacity:1"
         id="rect3161"
         width="153.5164"
         height="154.86983"
         x="-218.3699"
         y="-30.989798"
         ry="0" />
      <path
         style="fill:none;stroke:#ffffff;stroke-width:2;stroke-linecap:butt;stroke-linejoin:miter;stroke-miterlimit:4;stroke-dasharray:none;stroke-opacity:1"
         d="M -218.3699,-30.989796 -64.853499,123.88003 V -30.989796 L -218.3699,123.88003 Z"
         id="path3163" />
      <path
         style="fill:none;stroke:#ffffff;stroke-width:2;stroke-linecap:butt;stroke-linejoin:miter;stroke-miterlimit:4;stroke-dasharray:none;stroke-opacity:1"
         d="M -230.68996,13.224291 H -51.43973"
         id="path3165" />
      <path
         style="fill:none;stroke:#ffffff;stroke-width:2;stroke-linecap:butt;stroke-linejoin:miter;stroke-miterlimit:4;stroke-dasharray:none;stroke-opacity:1"
         d="M -230.68996,46.032627 H -51.43973"
         id="path3167" />
      <path
         style="fill:none;stroke:#ffffff;stroke-width:2;stroke-linecap:butt;stroke-linejoin:miter;stroke-miterlimit:4;stroke-dasharray:none;stroke-opacity:1"
         d="M -230.68996,78.840963 H -51.43973"
         id="path3169" />
      <path
         style="fill:none;stroke:#ffffff;stroke-width:2;stroke-linecap:butt;stroke-linejoin:miter;stroke-miterlimit:4;stroke-dasharray:none;stroke-opacity:1"
         d="M -173.87319,135.65774 V -43.592493"
         id="path3171" />
      <path
         style="fill:none;stroke:#ffffff;stroke-width:2;stroke-linecap:butt;stroke-linejoin:miter;stroke-miterlimit:4;stroke-dasharray:none;stroke-opacity:1"
         d="M -141.06485,135.65774 V -43.592493"
         id="path3173" />
      <path
         style="fill:none;stroke:#ffffff;stroke-width:2;stroke-linecap:butt;stroke-linejoin:miter;stroke-miterlimit:4;stroke-dasharray:none;stroke-opacity:1"
         d="M -108.25651,135.65774 V -43.592493"
         id="path3175" />
      <circle
         style="fill:none;stroke:#ffffff;stroke-width:2;stroke-miterlimit:4;stroke-dasharray:none;stroke-opacity:1"
         id="circle3177"
         cx="-140.88263"
         cy="46.365383"
         r="32.63361" />
      <circle
         style="fill:none;stroke:#ffffff;stroke-width:2;stroke-miterlimit:4;stroke-dasharray:none;stroke-opacity:1"
         id="circle3179"
         cx="-140.88263"
         cy="46.365383"
         r="46.817307" />
      <circle
         style="fill:none;stroke:#ffffff;stroke-width:2;stroke-miterlimit:4;stroke-dasharray:none;stroke-opacity:1"
         id="circle3181"
         cx="-140.88263"
         cy="46.365383"
         r="76.507011" />
      <rect
         style="fill:#88bae4;fill-opacity:0.377034;stroke:#7e7cd0;stroke-width:2;stroke-miterlimit:4;stroke-dasharray:none;stroke-opacity:1"
         id="rect3183"
         width="23.215921"
         height="224.82648"
         x="-100.55646"
         y="-22.679661"
         transform="rotate(25.642869)"
         ry="11.607961" />
    </g>
    <path
       id="path3227"
       style="opacity:1;fill:#bdbdbd;fill-opacity:1;stroke:none;stroke-width:10.628;stroke-miterlimit:4;stroke-dasharray:none;stroke-opacity:1"
       d="M 512,245.07422 A 266.92484,266.92484 0 0 0 245.07422,512 266.92484,266.92484 0 0 0 331.95703,708.95117 226.29918,226.29918 0 0 1 285.70117,572 226.29918,226.29918 0 0 1 512,345.70117 226.29918,226.29918 0 0 1 738.29883,572 226.29918,226.29918 0 0 1 692.04297,708.95117 266.92484,266.92484 0 0 0 778.92578,512 266.92484,266.92484 0 0 0 512,245.07422 Z"
       transform="scale(0.26458333)" />
    <path
       id="path3568"
       style="opacity:1;fill:#dc5245;fill-opacity:1;stroke:none;stroke-width:7.55906;stroke-miterlimit:4;stroke-dasharray:none;stroke-opacity:1"
       d="m 202.95703,196.71875 c 12.79797,62.38885 44.17482,119.44499 90.00586,163.66797 19.00525,-27.4133 42.98039,-51.02143 70.68359,-69.60156 -59.39503,-20.11852 -114.06961,-52.12461 -160.68945,-94.06641 z m 618.08594,0 c -46.46328,41.7886 -100.92547,73.71109 -160.08789,93.83398 27.60188,18.56198 51.49123,42.11946 70.4375,69.45899 45.63509,-44.16904 76.88037,-101.08049 89.65039,-163.29297 z"
       transform="scale(0.26458333)"
       sodipodi:nodetypes="cccccccc" />
    <path
       id="path4711"
       style="opacity:1;fill:#dc5245;fill-opacity:1;stroke:none;stroke-width:2;stroke-miterlimit:4;stroke-dasharray:none;stroke-opacity:1"
       d="m 101.92943,116.81355 a 16.239845,16.239845 0 0 0 -3.859717,10.48308 16.239845,16.239845 0 0 0 16.239837,16.23983 16.239845,16.239845 0 0 0 16.22071,-15.92616 41.49654,41.49654 0 0 1 -0.68161,0.016 41.49654,41.49654 0 0 1 -27.91922,-10.81276 z" />
    <path
       id="path4796"
       style="opacity:1;fill:#dc5245;fill-opacity:1;stroke:none;stroke-width:2;stroke-miterlimit:4;stroke-dasharray:none;stroke-opacity:1"
       d="m 169.0039,116.81355 a 16.239845,16.239845 0 0 1 3.85972,10.48308 16.239845,16.239845 0 0 1 -16.23984,16.23983 16.239845,16.239845 0 0 1 -16.22071,-15.92616 41.49654,41.49654 0 0 0 0.68161,0.016 41.49654,41.49654 0 0 0 27.91922,-10.81276 z" />
    <path
       id="path4820"
       style="opacity:1;fill:#dc5245;fill-opacity:1;stroke:none;stroke-width:2;stroke-miterlimit:4;stroke-dasharray:none;stroke-opacity:1"
       d="m 100.74889,161.72758 a 38.611214,38.681779 0 0 0 34.71777,21.76612 38.611214,38.681779 0 0 0 34.71778,-21.76612 47.726859,47.814081 0 0 1 -34.71778,15.02338 47.726859,47.814081 0 0 1 -34.71777,-15.02338 z" />
  </g>
</svg>
